Coordinates
version=1
nRows=17
nColumns=36
inDegrees=yes

Units are S.I. units (second, meters, Newtons, ...)
If the header above contains a line with 'inDegrees', this indicates whether rotational values are in degrees (yes) or radians (no).

endheader
time	pelvis_tilt	pelvis_list	pelvis_rotation	pelvis_tx	pelvis_ty	pelvis_tz	hip_flexion_r	hip_adduction_r	hip_rotation_r	knee_angle_r	knee_angle_r_beta	ankle_angle_r	subtalar_angle_r	mtp_angle_r	hip_flexion_l	hip_adduction_l	hip_rotation_l	knee_angle_l	knee_angle_l_beta	ankle_angle_l	subtalar_angle_l	mtp_angle_l	lumbar_extension	lumbar_bending	lumbar_rotation	arm_flex_r	arm_add_r	arm_rot_r	elbow_flex_r	pro_sup_r	arm_flex_l	arm_add_l	arm_rot_l	elbow_flex_l	pro_sup_l
      1.68750000	      4.70052163	      0.66371266	      1.87884346	     -1.08477955	      1.30335951	     -0.07409124	     -7.32056403	      0.68541250	     -7.88102717	      0.76540696	      0.01335887	      1.44677745	     -6.10740957	     -7.49999987	     -6.96770063	      0.15863908	     -9.19240663	      2.30324674	      0.04019924	      2.12082535	      0.84453508	     -7.49999987	    -15.30640821	      0.55866164	      1.05218205	     10.26692116	     -6.22522046	     14.63762546	     30.03677775	     80.35952030	     10.66713231	     -6.96064991	     22.10593990	     27.92122872	     86.48113834
      1.69166670	      4.66192342	      0.68524724	      1.94786584	     -1.08541431	      1.30293296	     -0.07465184	     -7.24356516	      0.66027552	     -7.88824850	      0.78756187	      0.01374555	      1.42501327	     -6.10544756	     -7.49999987	     -6.87842926	      0.18331059	     -9.07508231	      2.31455313	      0.04039657	      2.02449121	      0.65424864	     -7.49999987	    -15.31987963	      0.54743752	      1.00016181	     10.33243138	     -6.21492775	     14.51919436	     30.13558203	     80.19014964	     10.81017480	     -6.96273621	     22.23706840	     27.93420301	     86.24325793
      1.69583330	      4.57581821	      0.70305779	      1.98176317	     -1.08638630	      1.30405668	     -0.07475534	     -7.10109216	      0.62768167	     -7.70160702	      0.80480853	      0.01404656	      1.23643353	     -6.41811142	     -7.49999987	     -6.70432916	      0.20540009	     -8.92573012	      2.37591170	      0.04146748	      1.88630955	      0.32754738	     -7.49999987	    -15.27314267	      0.53737532	      0.85521682	     10.50694701	     -6.08182255	     14.48771454	     29.98347500	     77.37760643	     10.82736256	     -6.86429377	     21.97391348	     27.91472208	     82.49843343
      1.70000000	      4.33829054	      0.71374798	      1.93807766	     -1.08492007	      1.30389550	     -0.07457295	     -6.80530282	      0.56539318	     -8.00428297	      0.90935926	      0.01587131	      1.53797612	     -5.56679059	     -7.49999987	     -6.46113371	      0.23650599	     -9.25149046	      2.36384965	      0.04125696	      1.92309431	      0.93550446	     -7.49999987	    -14.85984082	      0.52829734	      0.76002661	     10.52016453	     -5.94218233	     14.58403280	     29.80434938	     72.87190205	     10.66640439	     -6.75971317	     21.94135875	     27.86323018	     76.95492636
      1.70416670	      4.53910672	      0.74783632	      2.05061064	     -1.08452308	      1.30529094	     -0.07609079	     -7.02297226	      0.52891488	     -7.81550253	      0.89263333	      0.01557939	      1.16804944	     -6.05730765	     -7.49999987	     -6.59783453	      0.27389080	     -9.08403471	      2.47864245	      0.04326047	      1.75257852	      0.55499594	     -7.49999987	    -15.32380045	      0.54171767	      0.81457232	     10.59216057	     -6.22458546	     14.48775144	     30.27605434	     80.70296523	     10.99054676	     -6.85459813	     21.74265034	     28.10606584	     86.59344452
      1.70833330	      4.50354797	      0.78230273	      2.07504726	     -1.08488000	      1.30281760	     -0.07570859	     -6.95352840	      0.46264869	     -7.78393910	      0.95708020	      0.01670420	      1.21665983	     -5.98176175	     -7.49999987	     -6.53346663	      0.32108366	     -9.11699674	      2.54356051	      0.04439351	      1.73560654	      0.54534605	     -7.49999987	    -15.29434167	      0.51806898	      0.84465944	     10.59066449	     -6.24692159	     14.34889329	     30.45949499	     80.48235597	     11.12163543	     -6.86170864	     22.09983280	     28.09185838	     86.40586271
      1.71250000	      4.47276139	      0.81994485	      2.10166314	     -1.08618024	      1.30377796	     -0.07588128	     -6.86339722	      0.39037394	     -7.81539141	      1.04343686	      0.01821141	      1.27321325	     -5.79410807	     -7.49999987	     -6.47816636	      0.38942384	     -9.04803679	      2.55786145	      0.04464310	      1.63737764	      0.45464617	     -7.49999987	    -15.29266340	      0.53639343	      0.76545347	     10.75308975	     -6.29106680	     14.84433828	     30.46845680	     77.62527499	     11.17410403	     -6.84224435	     22.39260816	     28.19927097	     82.77889517
      1.71666670	      4.38880869	      0.85779315	      2.11169647	     -1.08654927	      1.30407831	     -0.07524405	     -6.71112219	      0.33602465	     -7.68068497	      1.11711649	      0.01949736	      1.17125985	     -6.05720807	     -7.49999987	     -6.32544379	      0.43467942	     -9.04980583	      2.63976623	      0.04607261	      1.63579848	      0.50575017	     -7.49999987	    -15.27252584	      0.50906047	      0.83520336	     10.78309394	     -6.27662835	     14.25734797	     30.65170770	     80.65866013	     11.32864689	     -6.82651537	     22.13870101	     28.19347617	     86.46128012
      1.72083330	      4.36625200	      0.88129529	      2.14518918	     -1.08443949	      1.30426615	     -0.07333719	     -6.68211207	      0.34232138	     -7.72325202	      1.13684539	      0.01984170	      1.23018494	     -5.89693329	     -7.49999987	     -6.28530583	      0.42911848	     -9.06591776	      2.68468404	      0.04685658	      1.62759943	      0.72334410	     -7.49999987	    -15.24854747	      0.47110964	      0.76548452	     10.83630387	     -6.16147319	     14.33777378	     30.68280841	     78.60251988	     11.28888062	     -6.83659023	     22.04037473	     28.32608182	     83.86080828
      1.72500000	      4.32830872	      0.86788182	      2.14953759	     -1.08619840	      1.30255001	     -0.07336511	     -6.60038056	      0.37782951	     -7.70324379	      1.19876495	      0.02092240	      1.31174943	     -5.94849114	     -7.49999987	     -6.20350674	      0.40162628	     -8.91194955	      2.71224038	      0.04733752	      1.62099038	      0.58458831	     -7.49999987	    -15.25851507	      0.47518560	      0.78097270	     10.88912669	     -6.22563203	     14.40701516	     30.93251248	     80.72987591	     11.40305720	     -6.93101798	     22.05312128	     28.48521677	     86.47555234
      1.72916670	      4.03889959	      0.85727888	      2.16610114	     -1.08577300	      1.30315899	     -0.07436147	     -6.26145760	      0.39688545	     -7.54646935	      1.26645442	      0.02210380	      1.22567425	     -6.31383851	     -7.49999987	     -5.80558573	      0.37860299	     -8.66659743	      2.80689066	      0.04898948	      1.59414548	      0.49644306	     -7.49999987	    -14.83819351	      0.46686032	      0.73165698	     11.03314921	     -6.01134162	     14.32475260	     30.38405180	     76.85455389	     11.41737796	     -6.77607679	     21.92609512	     28.12658208	     81.63343101
      1.73333330	      4.35384117	      0.82789223	      2.15587102	     -1.08480647	      1.30285312	     -0.07425061	     -6.61573077	      0.43728054	     -7.94418442	      1.28550301	      0.02243626	      1.55925347	     -5.74626913	     -7.49999987	     -6.14879525	      0.33116734	     -8.59145238	      2.76279756	      0.04821991	      1.65154121	      0.55790365	     -7.49999987	    -15.32897252	      0.53644753	      0.68418084	     11.12584804	     -6.17071808	     15.04749139	     30.95590785	     75.44520630	     11.48855781	     -6.92085738	     22.52173402	     28.61388131	     79.79638871
      1.73750000	      4.31515135	      0.84933895	      2.16390373	     -1.08643817	      1.30673334	     -0.07549357	     -6.57959886	      0.40566930	     -7.91463115	      1.26744565	      0.02212110	      1.55963036	     -5.76145265	     -7.49999987	     -6.10336702	      0.34882631	     -8.60307521	      2.74129979	      0.04784471	      1.64311220	      0.57685905	     -7.49999987	    -15.28973205	      0.52382029	      0.67123748	     11.18338823	     -6.17948046	     15.06148078	     30.99187235	     75.47261880	     11.59521070	     -6.88359681	     22.53599791	     28.67062102	     79.83037224
      1.74166670	      4.24110894	      0.85534705	      2.13749758	     -1.08720152	      1.30351577	     -0.07552801	     -6.45414147	      0.38357679	     -7.78175876	      1.31007835	      0.02286518	      1.55061723	     -6.01474644	     -7.49999987	     -5.95881408	      0.35904869	     -8.59827643	      2.79777753	      0.04883043	      1.75638721	      0.82122296	     -7.49999987	    -15.33451951	      0.50020932	      0.81948934	     11.11151829	     -6.24956146	     14.30883691	     31.36316431	     80.63880378	     11.74756731	     -6.85803076	     21.94552957	     28.85984616	     86.46873861
      1.74583330	      3.80425380	      0.86621287	      2.17775367	     -1.08901098	      1.30347009	     -0.07687606	     -5.91282863	      0.31973855	     -7.90422576	      1.38459793	      0.02416579	      1.58430908	     -5.74821772	     -7.49999987	     -5.36756838	      0.41148240	     -8.71282703	      2.89183702	      0.05047208	      1.72046199	      0.74669954	     -7.49999987	    -14.85600862	      0.47511972	      0.68998845	     11.10519441	     -6.14958873	     14.16978145	     31.16504128	     77.31656262	     11.70516505	     -6.64628606	     21.69878635	     28.87555245	     82.30859326
      1.75000000	      4.12386319	      0.94244192	      2.16003713	     -1.08920894	      1.30387617	     -0.07718319	     -6.23400157	      0.22737020	     -7.73007525	      1.35015639	      0.02356467	      1.36299805	     -6.22197825	     -7.49999987	     -5.61020117	      0.49900966	     -8.69650190	      2.98310998	      0.05206509	      1.42252927	      0.18970860	     -7.49999987	    -15.49257708	      0.47360207	      0.73545451	     11.38494225	     -6.31112175	     14.19288612	     31.67447640	     80.53178347	     12.16962301	     -6.72952418	     21.83659428	     29.07928690	     86.50735193
      1.75416670	      4.08358708	      0.95370905	      2.14966021	     -1.08788165	      1.30667392	     -0.07531018	     -6.13735031	      0.20357461	     -7.65092052	      1.36526245	      0.02382832	      1.31595864	     -6.12999467	     -7.49999987	     -5.52560588	      0.53339726	     -8.62275855	      2.99456156	      0.05226496	      1.34993590	      0.24543340	     -7.49999987	    -15.54690647	      0.49208489	      0.73114381	     11.52934570	     -6.33250464	     14.18598628	     31.71685797	     80.53453331	     12.27326250	     -6.66771654	     21.82841243	     29.12440609	     86.50756205
